<?xml version="1.0" encoding="UTF-8"?>
<svg id="Layer_2" data-name="Layer 2" xmlns="http://www.w3.org/2000/svg" xmlns:xlink="http://www.w3.org/1999/xlink" viewBox="0 0 48.23 48.58">
  <defs>
    <style>
      .cls-1, .cls-2 {
        fill: none;
      }

      .cls-3 {
        clip-path: url(#clippath);
      }

      .cls-4 {
        fill: #fdca40;
      }

      .cls-4, .cls-5, .cls-6, .cls-7, .cls-2 {
        stroke: #000;
        stroke-miterlimit: 10;
      }

      .cls-5 {
        fill: #d81159;
      }

      .cls-6 {
        fill: #459bd6;
      }

      .cls-7 {
        fill: #419d78;
      }
    </style>
    <clipPath id="clippath">
      <path class="cls-1" d="m2,24.17c1.98-1.71,4.44-2.77,5.39-3.47s3.57-3.16,3.29-4.77c-.16-.94-1.18-1.21-2.39-1.4s-2.87-1.44-3.25-2.92c-.88-3.44,3.1-7.36,6.92-6.09,2.58.86,1.68,2.02,2.26,4.16.42,1.54,1.89,1.4,2.92.78S26.22,1.38,26.89.62c.73-.83,5.19,2.96,5.84,3.62,1.29,1.29,2.54,3.17,2.39,4.36-.17,1.34-1.81.85-3.99,1.36-1.04.24-1.38,1.09-1.36,1.69.04,1.02.12,2.84,3.38,4.86,1.64,1.01,2.8.69,3.56.11.69-.53.9-1.4.92-2.27.02-1.05,0-1.84.83-2.41.71-.48,1.74-.67,2.59-.29,1.7.77,3.75,2.43,4.57,4.57s2.25,6.06,2.1,7.2c-.21,1.55-2.45,1.72-4.86,3.79-1.82,1.56-3.87,4.33-4.45,5.02-.85,1.01-1.31,2.47.59,3.54,1.56.87,2.71.05,3.75,1.44.75,1.01.67,3.73-.74,5.02s-3.5,1.61-4.98.7-1.27-2.9-2.09-3.81c-.59-.65-.91-.9-1.82-.84-.55.03-1.45.36-2.63,1.81-.81,1-2.94,4.68-4.4,6.46-.45.54-1.47,1.76-3.05,1.48-1.12-.2-1.49-1.35-1.98-2.39-.38-.81-2.54-5.04-3.95-6.42-1.51-1.48-3.21-2.15-5.02-1.23-2.57,1.3-2.35,3.89-2.65,5.04-.44,1.7-1.91,3.34-3.95,2.25-1.28-.69-5.31-2.92-3.56-5.43.95-1.36,2.46-1.48,3.79-1.98,1.67-.63,2.94-2.39,2.22-5.19-.4-1.55-.99-2.98-2.65-3.94s-2.89.67-4.31-.88,1.04-3.69,1.04-3.69Z"/>
    </clipPath>
  </defs>
  <g id="calendar_puzzle_piece" data-name="calendar puzzle piece">
    <g class="cls-3">
      <g>
        <rect class="cls-6" x="14.91" y="16.18" width="32.43" height="32.43"/>
        <rect class="cls-4" x="-17.52" y="16.18" width="32.43" height="32.43"/>
      </g>
      <g>
        <rect class="cls-7" x="14.93" y="-16.26" width="32.43" height="32.43"/>
        <rect class="cls-5" x="-17.5" y="-16.26" width="32.43" height="32.43"/>
      </g>
    </g>
    <path class="cls-2" d="m2,24.17c1.98-1.71,4.44-2.77,5.39-3.47s3.57-3.16,3.29-4.77c-.16-.94-1.18-1.21-2.39-1.4s-2.87-1.44-3.25-2.92c-.88-3.44,3.1-7.36,6.92-6.09,2.58.86,1.68,2.02,2.26,4.16.42,1.54,1.89,1.4,2.92.78S26.22,1.38,26.89.62c.73-.83,5.19,2.96,5.84,3.62,1.29,1.29,2.54,3.17,2.39,4.36-.17,1.34-1.81.85-3.99,1.36-1.04.24-1.38,1.09-1.36,1.69.04,1.02.12,2.84,3.38,4.86,1.64,1.01,2.8.69,3.56.11.69-.53.9-1.4.92-2.27.02-1.05,0-1.84.83-2.41.71-.48,1.74-.67,2.59-.29,1.7.77,3.75,2.43,4.57,4.57s2.25,6.06,2.1,7.2c-.21,1.55-2.45,1.72-4.86,3.79-1.82,1.56-3.87,4.33-4.45,5.02-.85,1.01-1.31,2.47.59,3.54,1.56.87,2.71.05,3.75,1.44.75,1.01.67,3.73-.74,5.02s-3.5,1.61-4.98.7-1.27-2.9-2.09-3.81c-.59-.65-.91-.9-1.82-.84-.55.03-1.45.36-2.63,1.81-.81,1-2.94,4.68-4.4,6.46-.45.54-1.47,1.76-3.05,1.48-1.12-.2-1.49-1.35-1.98-2.39-.38-.81-2.54-5.04-3.95-6.42-1.51-1.48-3.21-2.15-5.02-1.23-2.57,1.3-2.35,3.89-2.65,5.04-.44,1.7-1.91,3.34-3.95,2.25-1.28-.69-5.31-2.92-3.56-5.43.95-1.36,2.46-1.48,3.79-1.98,1.67-.63,2.94-2.39,2.22-5.19-.4-1.55-.99-2.98-2.65-3.94s-2.89.67-4.31-.88,1.04-3.69,1.04-3.69Z"/>
  </g>
</svg>