<?xml version="1.0" encoding="UTF-8"?>
<svg id="Layer_2" data-name="Layer 2" xmlns="http://www.w3.org/2000/svg" xmlns:xlink="http://www.w3.org/1999/xlink" viewBox="0 0 15.22 15.86">
  <defs>
    <style>
      .cls-1, .cls-2 {
        fill: none;
      }

      .cls-3 {
        clip-path: url(#clippath);
      }

      .cls-4 {
        fill: #fdca40;
      }

      .cls-4, .cls-5, .cls-6, .cls-7, .cls-2 {
        stroke: #000;
        stroke-miterlimit: 10;
        stroke-width: .5px;
      }

      .cls-5 {
        fill: #459bd6;
      }

      .cls-6 {
        fill: #419d78;
      }

      .cls-7 {
        fill: #d81159;
      }
    </style>
    <clipPath id="clippath">
      <path class="cls-1" d="m.59,9.1c.53-.65,1.25-1.12,1.51-1.39s.95-1.19.78-1.69c-.1-.29-.44-.32-.83-.31s-.98-.3-1.19-.74c-.47-1.04.58-2.49,1.85-2.3.86.13.64.55.94,1.19.22.46.67.34.96.09S6.98.58,7.15.31c.19-.3,1.8.65,2.04.82.48.34.97.86.99,1.25.02.43-.52.37-1.18.65-.32.13-.38.42-.34.61.07.32.19.89,1.33,1.35.57.23.92.06,1.13-.16.19-.2.21-.49.17-.77-.05-.33-.1-.58.13-.8.2-.19.51-.31.8-.23.58.15,1.31.56,1.69,1.19s1.04,1.79,1.06,2.16c.02.5-.68.68-1.32,1.46-.49.59-.98,1.58-1.13,1.83-.21.36-.28.85.38,1.08.54.19.86-.13,1.26.25.29.28.42,1.14.04,1.62s-1.02.7-1.53.49-.56-.84-.87-1.09c-.22-.17-.34-.23-.62-.17-.17.04-.44.19-.73.72-.2.36-.67,1.64-1.04,2.28-.11.19-.37.64-.88.63-.36,0-.54-.34-.75-.64-.16-.23-1.08-1.45-1.6-1.81-.56-.38-1.13-.5-1.65-.11-.74.55-.53,1.35-.56,1.73-.05.56-.42,1.16-1.12.92-.44-.15-1.83-.63-1.42-1.52.22-.48.69-.6,1.09-.83.49-.29.8-.92.42-1.76-.21-.47-.48-.89-1.05-1.1s-.87.37-1.41-.04.12-1.22.12-1.22Z"/>
    </clipPath>
  </defs>
  <g id="calendar_puzzle_piece" data-name="calendar puzzle piece">
    <g class="cls-3">
      <g>
        <rect class="cls-5" x="5.04" y="4.91" width="10.38" height="10.38" transform="translate(-1.58 1.9) rotate(-9.84)"/>
        <rect class="cls-4" x="-5.19" y="6.68" width="10.38" height="10.38" transform="translate(-2.03 .17) rotate(-9.84)"/>
      </g>
      <g>
        <rect class="cls-6" x="3.27" y="-5.32" width="10.38" height="10.38" transform="translate(.15 1.44) rotate(-9.84)"/>
        <rect class="cls-7" x="-6.96" y="-3.55" width="10.38" height="10.38" transform="translate(-.31 -.28) rotate(-9.84)"/>
      </g>
    </g>
    <path class="cls-2" d="m.59,9.1c.53-.65,1.25-1.12,1.51-1.39s.95-1.19.78-1.69c-.1-.29-.44-.32-.83-.31s-.98-.3-1.19-.74c-.47-1.04.58-2.49,1.85-2.3.86.13.64.55.94,1.19.22.46.67.34.96.09S6.98.58,7.15.31c.19-.3,1.8.65,2.04.82.48.34.97.86.99,1.25.02.43-.52.37-1.18.65-.32.13-.38.42-.34.61.07.32.19.89,1.33,1.35.57.23.92.06,1.13-.16.19-.2.21-.49.17-.77-.05-.33-.1-.58.13-.8.2-.19.51-.31.8-.23.58.15,1.31.56,1.69,1.19s1.04,1.79,1.06,2.16c.02.5-.68.68-1.32,1.46-.49.59-.98,1.58-1.13,1.83-.21.36-.28.85.38,1.08.54.19.86-.13,1.26.25.29.28.42,1.14.04,1.62s-1.02.7-1.53.49-.56-.84-.87-1.09c-.22-.17-.34-.23-.62-.17-.17.04-.44.19-.73.72-.2.36-.67,1.64-1.04,2.28-.11.19-.37.64-.88.63-.36,0-.54-.34-.75-.64-.16-.23-1.08-1.45-1.6-1.81-.56-.38-1.13-.5-1.65-.11-.74.55-.53,1.35-.56,1.73-.05.56-.42,1.16-1.12.92-.44-.15-1.83-.63-1.42-1.52.22-.48.69-.6,1.09-.83.49-.29.8-.92.42-1.76-.21-.47-.48-.89-1.05-1.1s-.87.37-1.41-.04.12-1.22.12-1.22Z"/>
  </g>
</svg>