<?xml version="1.0" encoding="UTF-8"?>
<svg id="Layer_2" data-name="Layer 2" xmlns="http://www.w3.org/2000/svg" xmlns:xlink="http://www.w3.org/1999/xlink" viewBox="0 0 200 200">
  <defs>
    <style>
      .cls-1, .cls-2 {
        fill: none;
      }

      .cls-3 {
        stroke-dasharray: 0 0;
      }

      .cls-3, .cls-4, .cls-5 {
        fill: #fff;
      }

      .cls-3, .cls-5 {
        stroke-width: .5px;
      }

      .cls-3, .cls-5, .cls-6, .cls-7, .cls-8, .cls-9, .cls-2 {
        stroke: #000;
        stroke-miterlimit: 10;
      }

      .cls-4 {
        font-family: Rubik-Bold, Rubik;
        font-size: 7.78px;
        font-weight: 700;
      }

      .cls-10 {
        clip-path: url(#clippath);
      }

      .cls-11 {
        letter-spacing: -.05em;
      }

      .cls-12 {
        letter-spacing: -.02em;
      }

      .cls-13 {
        clip-path: url(#clippath-1);
      }

      .cls-6 {
        fill: #fdca40;
      }

      .cls-7 {
        fill: #d81159;
      }

      .cls-8 {
        fill: #459bd6;
      }

      .cls-9 {
        fill: #419d78;
      }

      .cls-2 {
        stroke-width: 2px;
      }

      .cls-14 {
        opacity: .3;
      }

      .cls-15 {
        letter-spacing: 0em;
      }

      .cls-16 {
        letter-spacing: -.02em;
      }
    </style>
    <clipPath id="clippath">
      <rect id="FRAME" class="cls-1" x="0" y="0" width="200" height="200" rx="12.35" ry="12.35"/>
    </clipPath>
    <clipPath id="clippath-1">
      <path class="cls-1" d="m55.76,99.75c3.97-3.42,8.88-5.53,10.77-6.93s7.14-6.33,6.59-9.55c-.32-1.88-2.35-2.42-4.77-2.8s-5.74-2.88-6.5-5.85c-1.76-6.87,6.22-14.72,13.83-12.18,5.15,1.72,3.35,4.05,4.52,8.32.85,3.09,3.79,2.8,5.84,1.57s18.17-18.15,19.52-19.67c1.47-1.65,10.37,5.93,11.69,7.25,2.58,2.58,5.07,6.35,4.77,8.73-.34,2.68-3.62,1.7-7.99,2.71-2.08.49-2.76,2.18-2.72,3.37.07,2.03.24,5.68,6.75,9.72,3.27,2.03,5.6,1.37,7.12.22,1.39-1.06,1.81-2.8,1.85-4.54.05-2.1-.01-3.68,1.66-4.81,1.43-.97,3.48-1.35,5.19-.57,3.4,1.53,7.49,4.86,9.13,9.14s4.5,12.12,4.19,14.41c-.41,3.09-4.9,3.44-9.72,7.57-3.64,3.12-7.74,8.65-8.91,10.04-1.7,2.01-2.62,4.95,1.17,7.08,3.11,1.75,5.41.09,7.49,2.88,1.5,2.02,1.34,7.45-1.49,10.04-2.78,2.55-7,3.21-9.96,1.4s-2.55-5.8-4.18-7.61c-1.17-1.3-1.83-1.79-3.64-1.69-1.1.06-2.91.73-5.27,3.62-1.63,2-5.87,9.36-8.81,12.92-.89,1.08-2.94,3.52-6.09,2.96-2.24-.4-2.98-2.7-3.95-4.78-.75-1.61-5.07-10.07-7.9-12.85-3.02-2.96-6.41-4.3-10.04-2.47-5.15,2.59-4.71,7.77-5.31,10.08-.89,3.4-3.82,6.68-7.9,4.49-2.55-1.37-10.63-5.83-7.12-10.87,1.89-2.72,4.92-2.95,7.58-3.95,3.35-1.25,5.88-4.78,4.45-10.37-.8-3.11-1.98-5.97-5.29-7.87s-5.77,1.34-8.62-1.76,2.07-7.39,2.07-7.39Z"/>
    </clipPath>
  </defs>
  <g id="Secondary_logo" data-name="Secondary logo">
    <g class="cls-10">
      <g id="BG-DaySquares" class="cls-14">
        <g id="DaySquareWithName">
          <rect id="DaySquare" class="cls-5" x="76.88" y="73.2" width="64.87" height="64.87"/>
          <text class="cls-4" transform="translate(81.6 85.74) rotate(.02)"><tspan class="cls-11" x="0" y="0">T</tspan><tspan class="cls-15" x="4.52" y="0">uesd</tspan><tspan class="cls-16" x="23.35" y="0">a</tspan><tspan class="cls-12" x="27.81" y="0">y</tspan></text>
        </g>
        <rect id="DaySquare-2" data-name="DaySquare" class="cls-5" x="12.02" y="73.17" width="64.87" height="64.87"/>
        <rect id="DaySquare-3" data-name="DaySquare" class="cls-5" x="76.86" y="138.07" width="64.87" height="64.87"/>
        <rect id="DaySquare-4" data-name="DaySquare" class="cls-5" x="76.95" y="8.33" width="64.87" height="64.87"/>
        <rect id="DaySquare-5" data-name="DaySquare" class="cls-5" x="11.99" y="138.04" width="64.87" height="64.87"/>
        <rect id="DaySquare-6" data-name="DaySquare" class="cls-3" x="141.77" y="8.36" width="64.87" height="64.87"/>
        <rect id="DaySquare-7" data-name="DaySquare" class="cls-5" x="141.79" y="73.23" width="64.87" height="64.87"/>
        <rect id="DaySquare-8" data-name="DaySquare" class="cls-5" x="12.09" y="8.31" width="64.87" height="64.87"/>
        <rect id="DaySquare-9" data-name="DaySquare" class="cls-5" x="-52.82" y="8.28" width="64.87" height="64.87"/>
        <rect id="DaySquare-10" data-name="DaySquare" class="cls-5" x="141.76" y="138.09" width="64.87" height="64.87"/>
        <rect id="DaySquare-11" data-name="DaySquare" class="cls-5" x="-52.81" y="73.15" width="64.87" height="64.87"/>
        <rect id="DaySquare-12" data-name="DaySquare" class="cls-5" x="-52.87" y="138.06" width="64.87" height="64.87"/>
        <rect id="DaySquare-13" data-name="DaySquare" class="cls-5" x="-52.8" y="-56.63" width="64.87" height="64.87"/>
        <rect id="DaySquare-14" data-name="DaySquare" class="cls-5" x="12.11" y="-56.6" width="64.87" height="64.87"/>
        <rect id="DaySquare-15" data-name="DaySquare" class="cls-5" x="77.02" y="-56.57" width="64.87" height="64.87"/>
        <rect id="DaySquare-16" data-name="DaySquare" class="cls-5" x="141.89" y="-56.55" width="64.87" height="64.87"/>
      </g>
      <g id="PrimaryIcon">
        <g class="cls-13">
          <g>
            <rect class="cls-8" x="81.58" y="83.78" width="64.87" height="64.87"/>
            <rect class="cls-6" x="16.72" y="83.76" width="64.87" height="64.87"/>
          </g>
          <g>
            <rect class="cls-9" x="81.65" y="18.92" width="64.87" height="64.87"/>
            <rect class="cls-7" x="16.78" y="18.89" width="64.87" height="64.87"/>
          </g>
        </g>
        <path class="cls-2" d="m55.76,99.75c3.97-3.42,8.88-5.53,10.77-6.93,1.89-1.4,7.14-6.33,6.59-9.55-.32-1.88-2.35-2.42-4.77-2.8s-5.74-2.88-6.5-5.85c-1.76-6.87,6.22-14.72,13.83-12.18,5.15,1.72,3.35,4.05,4.52,8.32.85,3.09,3.79,2.8,5.84,1.57s18.17-18.15,19.52-19.67c1.47-1.65,10.37,5.93,11.69,7.25,2.58,2.58,5.07,6.35,4.77,8.73-.34,2.68-3.62,1.7-7.99,2.71-2.08.49-2.76,2.18-2.72,3.37.07,2.03.24,5.68,6.75,9.72,3.27,2.03,5.6,1.37,7.12.22,1.39-1.06,1.81-2.8,1.85-4.54.05-2.1-.01-3.68,1.66-4.81,1.43-.97,3.48-1.35,5.19-.57,3.4,1.53,7.49,4.86,9.13,9.14s4.5,12.12,4.19,14.41c-.41,3.09-4.9,3.44-9.72,7.57-3.64,3.12-7.74,8.65-8.91,10.04-1.7,2.01-2.62,4.95,1.17,7.08,3.11,1.75,5.41.09,7.49,2.88,1.5,2.02,1.34,7.45-1.49,10.04s-7,3.21-9.96,1.4-2.55-5.8-4.18-7.61c-1.17-1.3-1.83-1.79-3.64-1.69-1.1.06-2.91.73-5.27,3.62-1.63,2-5.87,9.36-8.81,12.92-.89,1.08-2.94,3.52-6.09,2.96-2.24-.4-2.98-2.7-3.95-4.78-.75-1.61-5.07-10.07-7.9-12.85-3.02-2.96-6.41-4.3-10.04-2.47-5.15,2.59-4.71,7.77-5.31,10.08-.89,3.4-3.82,6.68-7.9,4.49-2.55-1.37-10.63-5.83-7.12-10.87,1.89-2.72,4.92-2.95,7.58-3.95,3.35-1.25,5.88-4.78,4.45-10.37-.8-3.11-1.98-5.97-5.29-7.87s-5.77,1.34-8.62-1.76c-2.94-3.21,2.07-7.39,2.07-7.39Z"/>
      </g>
    </g>
  </g>
</svg>