<?xml version="1.0" encoding="UTF-8"?>
<svg id="Layer_2" data-name="Layer 2" xmlns="http://www.w3.org/2000/svg" xmlns:xlink="http://www.w3.org/1999/xlink" viewBox="0 0 96.47 97.15">
  <defs>
    <style>
      .cls-1, .cls-2 {
        fill: none;
      }

      .cls-3 {
        clip-path: url(#clippath);
      }

      .cls-4 {
        letter-spacing: -.05em;
      }

      .cls-5 {
        letter-spacing: -.02em;
      }

      .cls-6 {
        font-family: Rubik-Bold, Rubik;
        font-size: 7.78px;
        font-weight: 700;
      }

      .cls-7 {
        fill: #fdca40;
      }

      .cls-7, .cls-8, .cls-9, .cls-10, .cls-2 {
        stroke: #000;
        stroke-miterlimit: 10;
      }

      .cls-8 {
        fill: #d81159;
      }

      .cls-9 {
        fill: #459bd6;
      }

      .cls-10 {
        fill: #419d78;
      }

      .cls-2 {
        stroke-width: 2px;
      }

      .cls-11 {
        letter-spacing: 0em;
      }

      .cls-12 {
        letter-spacing: -.02em;
      }
    </style>
    <clipPath id="clippath">
      <path class="cls-1" d="m4,48.34c3.96-3.42,8.88-5.54,10.77-6.94s7.14-6.33,6.59-9.55c-.32-1.88-2.35-2.42-4.77-2.8s-5.74-2.88-6.5-5.84c-1.76-6.87,6.21-14.73,13.83-12.18,5.16,1.72,3.35,4.05,4.53,8.31.85,3.09,3.79,2.8,5.84,1.56S52.44,2.75,53.79,1.23c1.47-1.65,10.37,5.93,11.69,7.24,2.58,2.58,5.07,6.34,4.77,8.73-.34,2.68-3.62,1.7-7.99,2.72-2.08.49-2.76,2.18-2.72,3.38.07,2.03.25,5.68,6.75,9.71,3.27,2.03,5.6,1.37,7.12.22,1.39-1.06,1.81-2.8,1.85-4.54.05-2.1-.01-3.68,1.65-4.81,1.43-.97,3.48-1.35,5.19-.58,3.4,1.53,7.49,4.86,9.14,9.14s4.5,12.12,4.2,14.41c-.41,3.09-4.9,3.44-9.71,7.57-3.64,3.13-7.73,8.66-8.91,10.05-1.7,2.02-2.62,4.95,1.17,7.08,3.11,1.75,5.41.09,7.49,2.88,1.5,2.02,1.34,7.45-1.48,10.04s-7,3.21-9.96,1.4-2.55-5.8-4.18-7.61c-1.17-1.3-1.83-1.79-3.64-1.69-1.1.06-2.91.73-5.27,3.62-1.63,2-5.87,9.36-8.81,12.92-.89,1.08-2.94,3.52-6.09,2.96-2.24-.4-2.98-2.69-3.95-4.77-.75-1.61-5.07-10.07-7.9-12.84-3.02-2.96-6.42-4.3-10.04-2.47-5.15,2.59-4.71,7.78-5.31,10.08-.89,3.4-3.82,6.69-7.9,4.49-2.55-1.37-10.63-5.83-7.12-10.86,1.89-2.72,4.92-2.96,7.57-3.95,3.35-1.26,5.88-4.78,4.45-10.37-.8-3.11-1.99-5.97-5.3-7.87s-5.77,1.34-8.62-1.76c-2.94-3.21,2.07-7.39,2.07-7.39Z"/>
    </clipPath>
  </defs>
  <g id="calendar_puzzle_piece" data-name="calendar puzzle piece">
    <g>
      <g class="cls-3">
        <g>
          <g>
            <rect class="cls-9" x="29.82" y="32.35" width="64.87" height="64.87"/>
            <text class="cls-6" transform="translate(34.54 44.98)"><tspan class="cls-4" x="0" y="0">T</tspan><tspan class="cls-11" x="4.52" y="0">uesd</tspan><tspan class="cls-12" x="23.35" y="0">a</tspan><tspan class="cls-5" x="27.81" y="0">y</tspan></text>
          </g>
          <rect class="cls-7" x="-35.05" y="32.35" width="64.87" height="64.87"/>
        </g>
        <g>
          <rect class="cls-10" x="29.86" y="-32.51" width="64.87" height="64.87"/>
          <rect class="cls-8" x="-35" y="-32.51" width="64.87" height="64.87"/>
        </g>
      </g>
      <path class="cls-2" d="m4,48.34c3.96-3.42,8.88-5.54,10.77-6.94s7.14-6.33,6.59-9.55c-.32-1.88-2.35-2.42-4.77-2.8s-5.74-2.88-6.5-5.84c-1.76-6.87,6.21-14.73,13.83-12.18,5.16,1.72,3.35,4.05,4.53,8.31.85,3.09,3.79,2.8,5.84,1.56S52.44,2.75,53.79,1.23c1.47-1.65,10.37,5.93,11.69,7.24,2.58,2.58,5.07,6.34,4.77,8.73-.34,2.68-3.62,1.7-7.99,2.72-2.08.49-2.76,2.18-2.72,3.38.07,2.03.25,5.68,6.75,9.71,3.27,2.03,5.6,1.37,7.12.22,1.39-1.06,1.81-2.8,1.85-4.54.05-2.1-.01-3.68,1.65-4.81,1.43-.97,3.48-1.35,5.19-.58,3.4,1.53,7.49,4.86,9.14,9.14,1.65,4.28,4.5,12.12,4.2,14.41-.41,3.09-4.9,3.44-9.71,7.57-3.64,3.13-7.73,8.66-8.91,10.05-1.7,2.02-2.62,4.95,1.17,7.08,3.11,1.75,5.41.09,7.49,2.88,1.5,2.02,1.34,7.45-1.48,10.04s-7,3.21-9.96,1.4-2.55-5.8-4.18-7.61c-1.17-1.3-1.83-1.79-3.64-1.69-1.1.06-2.91.73-5.27,3.62-1.63,2-5.87,9.36-8.81,12.92-.89,1.08-2.94,3.52-6.09,2.96-2.24-.4-2.98-2.69-3.95-4.77-.75-1.61-5.07-10.07-7.9-12.84-3.02-2.96-6.42-4.3-10.04-2.47-5.15,2.59-4.71,7.78-5.31,10.08-.89,3.4-3.82,6.69-7.9,4.49-2.55-1.37-10.63-5.83-7.12-10.86,1.89-2.72,4.92-2.96,7.57-3.95,3.35-1.26,5.88-4.78,4.45-10.37-.8-3.11-1.99-5.97-5.3-7.87s-5.77,1.34-8.62-1.76,2.07-7.39,2.07-7.39Z"/>
    </g>
  </g>
</svg>